<?xml version="1.0" encoding="utf-8"?>
<!-- Generator: Adobe Illustrator 18.0.0, SVG Export Plug-In . SVG Version: 6.00 Build 0)  -->
<svg version="1.1" id="Layer_1" xmlns="http://www.w3.org/2000/svg" xmlns:xlink="http://www.w3.org/1999/xlink" x="0px" y="0px"
	 viewBox="0 0 1336.4 1190.6"  xml:space="preserve">
<g>
	<path fill="#04ABDE" d="M1025.7,389.1c11.1-36.5,20.6-72.9,28.5-106.2c26.9-137.9,9.5-233-50.7-267.9C987.6,5.5,968.6,0.7,948,0.7
		c-76.1,0-176,68.2-279,180.7C565.9,68.9,464.5,0.7,390,0.7c-20.6,0-39.6,4.8-55.5,14.3c-82.4,47.6-77.7,198.2-22.2,374.1
		C133.2,428.7,0,500.1,0,595.2s131.6,166.5,310.7,206.1c-11.1,36.5-20.6,72.9-28.5,106.2c-26.9,137.9-9.5,233,50.7,267.9
		c15.9,9.5,34.9,14.3,55.5,14.3c22.2,0,46-4.8,71.3-15.9c26.9-11.1,53.9-28.5,84-49.1c20.6-15.9,44.4-34.9,66.6-55.5
		c19-17.4,38-38,57.1-58.7c103,112.6,204.5,180.7,279,180.7c20.6,0,39.6-4.8,55.5-14.3c82.4-47.6,77.7-198.2,22.2-374.1
		c179.1-39.6,312.3-111,312.3-206.1C1336.4,500.1,1204.8,428.7,1025.7,389.1z M946.4,53c11.1,0,20.6,1.6,28.5,6.3
		c39.6,22.2,47.6,99.9,25.4,210.8c-6.3,33.3-15.9,69.8-28.5,106.2c-53.9-9.5-109.4-17.4-168-20.6c-33.3-49.1-68.2-95.1-103-136.3
		C795.8,118,886.2,53,946.4,53z M832.3,688.7c-17.4,31.7-36.5,61.8-57.1,91.9c-34.9,1.6-71.3,3.2-107.8,3.2
		c-36.5,0-72.9-1.6-107.8-3.2c-19-30.1-38-60.2-57.1-91.9c-19-31.7-34.9-63.4-50.7-95.1c15.9-31.7,33.3-63.4,50.7-95.1
		c19-31.7,36.5-61.8,57.1-91.9c34.9-1.6,71.3-3.2,107.8-3.2c36.5,0,72.9,1.6,107.8,3.2c19,30.1,38,60.2,57.1,91.9
		c19,31.7,34.9,63.4,50.7,95.1C867.2,625.3,849.7,657,832.3,688.7z M878.2,473.1c-11.1-20.6-23.8-41.2-36.5-60.2
		c39.6,3.2,77.7,9.5,114.1,15.9c-12.7,34.9-26.9,69.8-44.4,106.2C900.4,514.3,889.3,493.7,878.2,473.1z M667.4,351
		c-23.8,0-47.6,0-69.8,1.6c23.8-31.7,46-63.4,69.8-90.4c23.8,28.5,47.6,58.7,69.8,90.4C715,351,691.2,351,667.4,351z M456.6,473.1
		c-11.1,20.6-23.8,41.2-33.3,61.8c-15.9-36.5-31.7-71.3-44.4-106.2c36.5-6.3,74.5-11.1,114.1-15.9
		C480.3,431.9,469.2,452.5,456.6,473.1z M456.6,715.7c11.1,20.6,23.8,41.2,36.5,60.2c-39.6-3.2-77.7-9.5-114.1-15.9
		c12.7-34.9,26.9-69.8,44.4-106.2C434.4,674.4,445.5,695.1,456.6,715.7z M667.4,837.7c23.8,0,47.6,0,69.8-1.6
		c-23.8,31.7-46,63.4-69.8,91.9c-23.8-28.5-47.6-58.7-69.8-91.9C621.4,836.1,643.6,837.7,667.4,837.7z M878.2,715.7
		c11.1-20.6,23.8-41.2,33.3-61.8c15.9,36.5,31.7,71.3,44.4,106.2c-36.5,6.3-74.5,11.1-114.1,15.9
		C854.5,755.3,865.6,736.3,878.2,715.7z M529.5,355.8c-57.1,4.8-114.1,11.1-168,20.6c-11.1-36.5-22.2-72.9-28.5-106.2
		c-22.2-109.4-12.7-188.6,25.4-210.8c7.9-4.8,17.4-6.3,28.5-6.3c61.8,0,150.6,63.4,244.1,166.5C597.7,262.3,562.8,306.7,529.5,355.8
		z M393.2,593.6c-25.4,53.9-47.6,106.2-66.6,156.9c-38-7.9-72.9-17.4-106.2-28.5C114.1,685.5,50.7,638,50.7,595.2
		s63.4-90.4,169.6-126.8c33.3-11.1,68.2-20.6,106.2-28.5C345.6,489,367.8,541.3,393.2,593.6z M529.5,831.4
		c33.3,49.1,68.2,95.1,103,136.3c-19,20.6-38,41.2-58.7,58.7c-20.6,19-41.2,38-61.8,52.3c-26.9,19-50.7,33.3-72.9,42.8
		c-33.3,14.3-61.8,15.9-79.3,4.8c-39.6-22.2-47.6-99.9-25.4-210.8c6.3-33.3,15.9-69.8,28.5-106.2
		C415.3,820.3,472.4,826.6,529.5,831.4z M805.3,831.4c57.1-4.8,114.1-11.1,168-20.6c11.1,36.5,22.2,72.9,28.5,106.2
		c22.2,109.4,12.7,188.6-25.4,210.8c-7.9,4.8-17.4,6.3-28.5,6.3c-61.8,0-150.6-63.4-244.1-166.5C737.2,926.5,772,880.5,805.3,831.4z
		 M941.7,595.2c25.4-53.9,47.6-106.2,66.6-156.9c38,7.9,72.9,17.4,104.6,28.5c106.2,36.5,169.6,84,169.6,126.8
		s-63.4,90.4-169.6,126.8c-33.3,11.1-68.2,20.6-106.2,28.5C989.2,699.8,967,647.5,941.7,595.2z"/>
	<path fill="#04ABDE" d="M667.4,479.5c-63.4,0-114.1,50.7-114.1,114.1S604,707.7,667.4,707.7S781.5,657,781.5,593.6
		S730.8,479.5,667.4,479.5z M729.2,593.6c0,33.3-26.9,61.8-61.8,61.8s-61.8-27-61.8-61.8c0-34.9,26.9-61.8,61.8-61.8
		C702.3,531.8,729.2,560.3,729.2,593.6z"/>
</g>
</svg>
