<?xml version="1.0" encoding="UTF-8"?>
<!-- Generator: Adobe Illustrator 15.0.2, SVG Export Plug-In . SVG Version: 6.00 Build 0)  -->
<!DOCTYPE svg PUBLIC "-//W3C//DTD SVG 1.1//EN" "http://www.w3.org/Graphics/SVG/1.1/DTD/svg11.dtd">
<svg xmlns="http://www.w3.org/2000/svg" xmlns:xlink="http://www.w3.org/1999/xlink" version="1.1" id="Layer_1" x="0px" y="0px" width="512px" height="512.038px" viewBox="0 0 512 512.038" enable-background="new 0 0 512 512.038" xml:space="preserve">
<path d="M67.223,301.972c5.251,21.271,13.918,41.093,25.336,58.953l-31.9,32.027c-14.315,14.31-14.181,22.849-1.577,35.452  l31.118,31.117c12.731,12.745,21.398,12.476,35.445-1.577l33.482-33.604c15.752,9.026,32.823,16.014,50.94,20.476v40.965  c0,20.348,6.173,26.258,23.893,26.258h44.112c17.988,0,23.899-6.308,23.899-26.258v-40.965  c18.116-4.462,35.182-11.424,50.939-20.476l34.271,34.387c14.181,14.014,22.694,14.309,35.438,1.719l31.259-31.259  c12.463-12.463,12.732-21.04-1.718-35.439l-32.823-32.822c11.565-17.86,20.232-37.683,25.438-58.953h43.362  c17.949,0,23.86-6.309,23.86-26.259v-39.388c0-19.431-5.167-26.258-23.86-26.258h-43.362c-4.462-18.117-11.424-35.188-20.515-50.94  l31.284-31.117c13.783-13.783,14.963-22.322,1.705-35.451l-31.246-31.246c-12.475-12.476-21.438-12.341-35.451,1.705l-29.682,29.541  c-17.809-11.418-37.631-20.085-58.901-25.336V26.259C301.972,6.828,296.843,0,278.072,0H233.96c-17.72,0-23.893,6.437-23.893,26.259  v40.964c-21.271,5.251-41.093,13.918-58.953,25.336l-29.669-29.541c-14.046-14.046-22.977-14.181-35.452-1.705L54.748,92.559  c-13.258,13.129-12.078,21.668,1.705,35.451l31.117,31.117c-8.924,15.752-15.886,32.823-20.348,50.94h-43.33  C6.173,210.067,0,216.504,0,236.325v39.388c0,20.348,6.173,26.259,23.893,26.259H67.223z M180.917,256.02  c0-41.49,33.612-75.096,75.103-75.096s75.107,33.605,75.107,75.096s-33.617,75.107-75.107,75.107S180.917,297.51,180.917,256.02z" fill="#000000"/>
</svg>
