<?xml version="1.0" encoding="utf-8"?>
<!-- Generator: Adobe Illustrator 19.0.0, SVG Export Plug-In . SVG Version: 6.00 Build 0)  -->
<svg version="1.1" id="Isolation_Mode" xmlns="http://www.w3.org/2000/svg" xmlns:xlink="http://www.w3.org/1999/xlink" x="0px"
	 y="0px" viewBox="0 0 91.8 14.2" style="enable-background:new 0 0 91.8 14.2;" xml:space="preserve">
<style type="text/css">
	.st0{fill:#black;}
</style>
<path id="XMLID_707_" class="st0" d="M78.6,9.8c0,2.4,1.9,4.4,4.4,4.4h4.2c2.5,0,4.5-2,4.5-4.5V5.5c0-2.4-2-4.4-4.4-4.4h-4.2
	c-0.4,0-0.7-0.3-0.7-0.6V0H79v1.5c0,1.6,1.1,2.8,3,2.8h5.4c0.5,0,1,0.4,1,1V10c0,0.7-0.5,1-1,1H83c-0.5,0-1-0.4-1-1V7.9h-3.4V9.8z
	 M63,9.8c0,2.4,2,4.4,4.4,4.4H76V11h-8.6c-0.5,0-1-0.4-1-1V4.2c0-0.7,0.5-1,1-1h4.4c0.5,0,1,0.4,1,1v3.8h3.4V4.4
	C76.2,2,74.2,0,71.8,0h-4.2C65,0,63,2,63,4.5V9.8z M46,3.1h3.3c0.5,0,0.8,0.4,0.8,0.8v2.4h3.4V4c0-0.4,0.4-0.8,0.8-0.8h1.8
	c0.4,0,0.8,0.4,0.8,0.8V10c0,0.5-0.4,1-1,1h-5c-0.5,0-1-0.4-1-1V8.2h-3.3v1.6c0,2.4,1.9,4.4,4.4,4.4h4.9c2.4,0,4.4-1.9,4.4-4.4V3.4
	c0-1.9-1.5-3.4-3.4-3.4h-3.2c-1.1,0-2,0.7-2,1.5h-0.1C51.8,0.7,51,0,49.9,0H46V3.1z M34.5,9.9c0-0.5,0.4-1.1,1.1-1.1l4.7,0
	c0.6,0,1.1,0.5,1.1,1.1c0,0.5-0.4,1.1-1.1,1.1l-4.7,0C35,11,34.5,10.4,34.5,9.9z M31.1,9.8c0,2.4,1.9,4.4,4.4,4.4h4.9
	c2.4,0,4.4-1.9,4.4-4.4c0-2.4-2-4.2-4.4-4.2h-0.5V3.1c0-1.3-0.6-2-2-2h-1c-0.4,0-0.7-0.3-0.7-0.6V0h-3.4v1.5c0,1.6,0.9,2.5,2.4,2.5
	h0.5c0.5,0,0.8,0.3,0.8,0.8v0.8h-1C33.1,5.6,31.1,7.3,31.1,9.8z M15.7,9.8c0,2.4,1.9,4.4,4.4,4.4h4.4c2.4,0,4.4-2,4.4-4.4V4.5
	c0-2.5-2-4.5-4.5-4.5h-4.2c-2.4,0-4.4,2-4.4,4.4v1.5h3.4V4.1c0-0.6,0.4-1,1-1h4.4c0.5,0,1,0.3,1,1V10c0,0.6-0.4,1-1,1h-4.4
	c-0.5,0-1-0.4-1-1V8.3h-3.4V9.8z M3.4,10V8.8h5.7c0.6,0,1.1,0.4,1.1,1.1c0,0.7-0.5,1.1-1.1,1.1H4.4C3.9,11,3.4,10.6,3.4,10z M0,9.7
	c0,2.4,2,4.4,4.4,4.4h4.9c2.4,0,4.4-1.9,4.4-4.4s-1.9-4.1-4.4-4.1H3.4V4.2c0-0.5,0.4-1,1-1h8.3V0H4.5C2,0,0,2.1,0,4.5V9.7z"/>
</svg>
