<?xml version="1.0" encoding="utf-8"?>
<!-- Generator: Adobe Illustrator 19.0.0, SVG Export Plug-In . SVG Version: 6.00 Build 0)  -->
<svg version="1.1" id="Vector_Smart_Object_xA0_Image"
	 xmlns="http://www.w3.org/2000/svg" xmlns:xlink="http://www.w3.org/1999/xlink" x="0px" y="0px" viewBox="0 0 94.2 67.7"
	 style="enable-background:new 0 0 94.2 67.7;" xml:space="preserve">
<style type="text/css">
	.st0{fill:white;}
	.st1{fill:white;}
</style>
<g id="XMLID_2_">
	<linearGradient id="XMLID_4_" gradientUnits="userSpaceOnUse" x1="58.8417" y1="18.1818" x2="2.4077" y2="52.0422">
		<stop  offset="0" style="stop-color:#1E4C9C"/>
		<stop  offset="0.9944" style="stop-color:#7851A0"/>
	</linearGradient>
	<path id="XMLID_22_" class="st0" d="M50.7,32.1c2.6-1.5,5.5-3.4,8.6-6.2l3.3-3.2c1.9-2,3.8-4.3,5.8-7l-13.9-2L47.7,0l-5.5,11.2
		c7.4,2.2,11,5.7,11,5.7c-5.5-1.7-12.9-2.9-23.6-1.6l-3.8,0.6l9.7,9.4c2.9-3.9,5.4-5.6,5.4-5.6c-2.7,4.8-5.4,11.5-6.5,21.8l13.3-7
		l13.5,7.1l-2-11.9C54.1,32,50.7,32.1,50.7,32.1z"/>
	<linearGradient id="XMLID_5_" gradientUnits="userSpaceOnUse" x1="96.61" y1="48.3708" x2="-42.9358" y2="82.2312">
		<stop  offset="0" style="stop-color:#1E4C9C"/>
		<stop  offset="0.9944" style="stop-color:#7851A0"/>
	</linearGradient>
	<path id="XMLID_3_" class="st1" d="M80.7,63.1c0,2.5,2,4.5,4.5,4.5h4.3c2.6,0,4.7-2.1,4.7-4.7v-4.2c0-2.5-2-4.5-4.5-4.5h-4.3
		c-0.5,0-0.7-0.3-0.7-0.7v-0.5h-3.5v1.5c0,1.6,1.2,2.8,3,2.8h5.5c0.6,0,1,0.4,1,1v4.9c0,0.7-0.5,1-1,1h-4.5c-0.6,0-1-0.4-1-1v-2.2
		h-3.5V63.1z M64.7,63.1c0,2.5,2,4.5,4.5,4.5h8.8v-3.2h-8.8c-0.6,0-1-0.4-1-1v-6c0-0.7,0.5-1,1-1h4.5c0.6,0,1,0.4,1,1v3.9h3.5v-3.6
		c0-2.5-2-4.5-4.5-4.5h-4.3c-2.6,0-4.7,2.1-4.7,4.7V63.1z M47.2,56.3h3.4c0.5,0,0.9,0.4,0.9,0.8v2.5H55v-2.5c0-0.5,0.4-0.8,0.9-0.8
		h1.9c0.5,0,0.8,0.4,0.8,0.8v6.2c0,0.5-0.4,1-1,1h-5.1c-0.6,0-1-0.5-1-1v-1.9H48v1.6c0,2.5,2,4.5,4.5,4.5h5c2.5,0,4.5-2,4.5-4.5
		v-6.5c0-1.9-1.6-3.5-3.5-3.5h-3.3c-1.1,0-2.1,0.7-2.1,1.5h-0.1c0-0.8-0.8-1.5-1.9-1.5h-4V56.3z M35.4,63.3c0-0.6,0.5-1.1,1.1-1.1
		l4.8,0c0.6,0,1.1,0.6,1.1,1.1c0,0.6-0.5,1.1-1.1,1.1l-4.8,0C35.9,64.4,35.4,63.8,35.4,63.3z M32,63.1c0,2.5,2,4.5,4.5,4.5h5
		c2.5,0,4.5-2,4.5-4.5c0-2.5-2-4.3-4.5-4.3H41v-2.6c0-1.4-0.7-2-2-2h-1.1c-0.5,0-0.7-0.3-0.7-0.7v-0.5h-3.5v1.5
		c0,1.6,0.9,2.6,2.5,2.6h0.5c0.6,0,0.9,0.3,0.9,0.9v0.8h-1C34,58.9,32,60.6,32,63.1z M16.1,63.1c0,2.5,2,4.5,4.5,4.5h4.5
		c2.5,0,4.5-2,4.5-4.5v-5.4c0-2.6-2.1-4.7-4.7-4.7h-4.3c-2.5,0-4.5,2-4.5,4.5v1.5h3.5v-1.8c0-0.6,0.5-1,1-1h4.5c0.6,0,1,0.3,1,1v6
		c0,0.6-0.5,1-1,1h-4.5c-0.5,0-1-0.4-1-1v-1.7h-3.5V63.1z M3.5,63.4v-1.3h5.9c0.7,0,1.1,0.5,1.1,1.1c0,0.7-0.5,1.2-1.1,1.2H4.5
		C4,64.4,3.5,63.9,3.5,63.4z M0,63.1c0,2.5,2,4.5,4.5,4.5h5c2.5,0,4.5-2,4.5-4.5c0-2.5-2-4.2-4.5-4.2H3.5v-1.5c0-0.6,0.5-1,1-1h8.6
		v-3.2H4.7c-2.6,0-4.7,2.1-4.7,4.7V63.1z"/>
</g>
</svg>
