<?xml version="1.0" encoding="utf-8"?>
<!-- Generator: Adobe Illustrator 19.0.0, SVG Export Plug-In . SVG Version: 6.00 Build 0)  -->
<svg version="1.1" id="Vector_Smart_Object_xA0_Image"
	 xmlns="http://www.w3.org/2000/svg" xmlns:xlink="http://www.w3.org/1999/xlink" x="0px" y="0px" viewBox="0 0 42.6 41.6"
	 style="enable-background:new 0 0 42.6 41.6;" xml:space="preserve">
<style type="text/css">
	.st0{fill: #2d4d9d}
</style>
<g id="XMLID_2_">
	<linearGradient id="XMLID_3_" gradientUnits="userSpaceOnUse" x1="33.0569" y1="18.1818" x2="-23.377" y2="52.0422">
		<stop  offset="0" style="stop-color:#1E4C9C"/>
		<stop  offset="0.9944" style="stop-color:#7851A0"/>
	</linearGradient>
	<path id="XMLID_22_" class="st0" d="M24.9,32.1c2.6-1.5,5.5-3.4,8.6-6.2l3.3-3.2c1.9-2,3.8-4.3,5.8-7l-13.9-2L21.9,0l-5.5,11.2
		c7.4,2.2,11,5.7,11,5.7c-5.5-1.7-12.9-2.9-23.6-1.6L0,15.9l9.7,9.4c2.9-3.9,5.4-5.6,5.4-5.6c-2.7,4.8-5.4,11.5-6.5,21.8l13.3-7
		l13.5,7.1l-2-11.9C28.3,32,24.9,32.1,24.9,32.1z"/>
</g>
</svg>
