<?xml version="1.0" encoding="utf-8"?>
<!-- Generator: Adobe Illustrator 19.0.0, SVG Export Plug-In . SVG Version: 6.00 Build 0)  -->
<svg version="1.1" id="Layer_1" xmlns="http://www.w3.org/2000/svg" xmlns:xlink="http://www.w3.org/1999/xlink" x="0px" y="0px"
	 viewBox="0 0 1920 1080" style="enable-background:new 0 0 1920 1080;" xml:space="preserve">
<g>
	<path d="M955.3,524.4c0-0.1,0.1-0.1,0.1-0.2c0,0,0,0,0-0.1c0-0.1,0.1-0.1,0.1-0.2c0,0,0,0,0,0c0-0.1,0.1-0.2,0.1-0.2c0,0,0,0,0,0
		c0-0.1,0.1-0.2,0.1-0.3c0,0,0,0,0,0c0-0.1,0.1-0.2,0.1-0.3c0,0,0,0,0-0.1c0-0.1,0-0.2,0-0.2c0-0.1,0-0.2,0-0.3V369.2
		c0-1.8-1.5-3.2-3.3-3.2H800.3c-1.8,0-3.3,1.4-3.3,3.2v193.6c0,1.8,1.5,3.2,3.3,3.2h110.4c0.1,0,0.2,0,0.3,0c0.1,0,0.2,0,0.2,0
		c0,0,0.1,0,0.1,0c0.1,0,0.2,0,0.3-0.1c0,0,0,0,0,0c0.1,0,0.2-0.1,0.3-0.1c0,0,0,0,0,0c0.1,0,0.2-0.1,0.2-0.1c0,0,0,0,0,0
		c0.1,0,0.1-0.1,0.2-0.1c0,0,0,0,0.1,0c0.1,0,0.1-0.1,0.2-0.1c0,0,0,0,0.1-0.1c0.1-0.1,0.1-0.1,0.2-0.2c0,0,0,0,0,0l42-40.4
		c0,0,0,0,0,0C955.1,524.6,955.2,524.5,955.3,524.4C955.3,524.4,955.3,524.4,955.3,524.4L955.3,524.4z M803.6,372.4h145.8v146.8
		h-38.7c-1.8,0-3.3,1.4-3.3,3.2v37.2H803.6V372.4z M944.7,525.6L914,555.1v-29.5H944.7z M944.7,525.6"/>
	<path d="M862.7,406.4h63.5c1.8,0,3.3-1.4,3.3-3.2s-1.5-3.2-3.3-3.2h-63.5c-1.8,0-3.3,1.4-3.3,3.2S860.8,406.4,862.7,406.4
		L862.7,406.4z M862.7,406.4"/>
	<path d="M833.3,414c0.6,0.6,1.5,0.9,2.3,0.9c0.8,0,1.7-0.3,2.3-0.9l17.7-17c1.3-1.2,1.3-3.3,0-4.5c-1.3-1.2-3.4-1.2-4.7,0
		l-15.3,14.8l-4.3-4.1c-1.3-1.2-3.4-1.2-4.7,0c-1.3,1.2-1.3,3.3,0,4.5L833.3,414z M833.3,414"/>
	<path d="M854.4,433c0,1.8,1.5,3.2,3.3,3.2h68.5c1.8,0,3.3-1.4,3.3-3.2s-1.5-3.2-3.3-3.2h-68.5C855.9,429.8,854.4,431.3,854.4,433
		L854.4,433z M854.4,433"/>
	<path d="M844.5,421.3h-17.7c-1.8,0-3.3,1.4-3.3,3.2v17c0,1.8,1.5,3.2,3.3,3.2h17.7c1.8,0,3.3-1.4,3.3-3.2v-17
		C847.8,422.8,846.3,421.3,844.5,421.3L844.5,421.3z M841.1,438.3h-11v-10.6h11V438.3z M841.1,438.3"/>
	<path d="M926.2,459.6h-68.5c-1.8,0-3.3,1.4-3.3,3.2c0,1.8,1.5,3.2,3.3,3.2h68.5c1.8,0,3.3-1.4,3.3-3.2
		C929.5,461.1,928,459.6,926.2,459.6L926.2,459.6z M926.2,459.6"/>
	<path d="M844.5,451.1h-17.7c-1.8,0-3.3,1.4-3.3,3.2v17c0,1.8,1.5,3.2,3.3,3.2h17.7c1.8,0,3.3-1.4,3.3-3.2v-17
		C847.8,452.5,846.3,451.1,844.5,451.1L844.5,451.1z M841.1,468.1h-11v-10.6h11V468.1z M841.1,468.1"/>
	<path d="M926.2,489.4h-68.5c-1.8,0-3.3,1.4-3.3,3.2c0,1.8,1.5,3.2,3.3,3.2h68.5c1.8,0,3.3-1.4,3.3-3.2
		C929.5,490.8,928,489.4,926.2,489.4L926.2,489.4z M926.2,489.4"/>
	<path d="M844.5,480.9h-17.7c-1.8,0-3.3,1.4-3.3,3.2v17c0,1.8,1.5,3.2,3.3,3.2h17.7c1.8,0,3.3-1.4,3.3-3.2v-17
		C847.8,482.3,846.3,480.9,844.5,480.9L844.5,480.9z M841.1,497.9h-11v-10.6h11V497.9z M841.1,497.9"/>
	<path d="M897.5,519.2h-39.8c-1.8,0-3.3,1.4-3.3,3.2s1.5,3.2,3.3,3.2h39.8c1.8,0,3.3-1.4,3.3-3.2S899.3,519.2,897.5,519.2
		L897.5,519.2z M897.5,519.2"/>
	<path d="M844.5,510.7h-17.7c-1.8,0-3.3,1.4-3.3,3.2v17c0,1.8,1.5,3.2,3.3,3.2h17.7c1.8,0,3.3-1.4,3.3-3.2v-17
		C847.8,512.1,846.3,510.7,844.5,510.7L844.5,510.7z M841.1,527.7h-11v-10.6h11V527.7z M841.1,527.7"/>
</g>
</svg>
