<?xml version="1.0" encoding="utf-8"?>
<!-- Generator: Adobe Illustrator 19.0.0, SVG Export Plug-In . SVG Version: 6.00 Build 0)  -->
<svg version="1.1" id="Layer_1" xmlns="http://www.w3.org/2000/svg" xmlns:xlink="http://www.w3.org/1999/xlink" x="0px" y="0px"
	 viewBox="0 0 1920 1080" style="enable-background:new 0 0 1920 1080;" xml:space="preserve">
<g>
	<path d="M973.2,516H942v43.2h3.2v4.7l3.2-2.1l3.2,2.1v-4.7h21.6c1.8,0,3.2-1.4,3.2-3.2v-36.8C976.4,517.4,975,516,973.2,516
		L973.2,516z M943.6,517.6H966v12h-22.4V517.6z M966,544h-22.4v-12.8H966V544z M950,560.9l-1.6-1.1l-1.6,1.1v-1.7h3.2V560.9z
		 M951.6,557.6h-8v-12H966v12H951.6z M967.6,557.6v-40h2.4v40H967.6z M971.6,531.2h3.2V544h-3.2V531.2z M974.8,556
		c0,0.9-0.7,1.6-1.6,1.6h-1.6v-12h3.2V556z M971.6,529.6v-12h1.6c0.9,0,1.6,0.7,1.6,1.6v10.4H971.6z M971.6,529.6"/>
</g>
</svg>
