<?xml version="1.0" encoding="utf-8"?>
<!-- Generator: Adobe Illustrator 19.0.0, SVG Export Plug-In . SVG Version: 6.00 Build 0)  -->
<svg version="1.1" id="Layer_1" xmlns="http://www.w3.org/2000/svg" xmlns:xlink="http://www.w3.org/1999/xlink" x="0px" y="0px"
	 viewBox="0 0 288 376" style="enable-background:new 0 0 288 376;" xml:space="preserve">
<g>
	<path d="M286.7,297.7c0.1-0.1,0.2-0.2,0.3-0.4c0,0,0-0.1,0.1-0.1c0.1-0.1,0.2-0.3,0.2-0.4c0,0,0-0.1,0-0.1c0.1-0.1,0.2-0.3,0.2-0.5
		c0,0,0,0,0-0.1c0.1-0.2,0.1-0.3,0.2-0.5c0,0,0,0,0-0.1c0.1-0.2,0.1-0.3,0.1-0.5c0,0,0-0.1,0-0.1c0-0.1,0.1-0.3,0.1-0.4
		c0-0.2,0-0.4,0-0.6V6c0-3.3-2.7-6-6-6H6C2.7,0,0,2.7,0,6v364c0,3.3,2.7,6,6,6h200c0.2,0,0.4,0,0.6,0c0.1,0,0.3,0,0.4-0.1
		c0,0,0.1,0,0.1,0c0.2,0,0.3-0.1,0.5-0.1c0,0,0,0,0.1,0c0.2,0,0.3-0.1,0.5-0.2c0,0,0,0,0.1,0c0.2-0.1,0.3-0.1,0.4-0.2
		c0,0,0.1,0,0.1,0c0.1-0.1,0.3-0.1,0.4-0.2c0,0,0.1,0,0.1-0.1c0.1-0.1,0.2-0.2,0.3-0.3c0,0,0.1-0.1,0.1-0.1c0.1-0.1,0.3-0.2,0.4-0.4
		c0,0,0,0,0,0l76-76c0,0,0,0,0,0c0.1-0.1,0.2-0.3,0.4-0.4C286.7,297.8,286.7,297.7,286.7,297.7L286.7,297.7z M12,12h264v276h-70
		c-3.3,0-6,2.7-6,6v70H12V12z M267.5,300L212,355.5V300H267.5z M267.5,300"/>
	<path d="M119,76h115c3.3,0,6-2.7,6-6s-2.7-6-6-6H119c-3.3,0-6,2.7-6,6S115.7,76,119,76L119,76z M119,76"/>
	<path d="M65.8,90.2c1.2,1.2,2.7,1.8,4.2,1.8s3.1-0.6,4.2-1.8l32-32c2.3-2.3,2.3-6.1,0-8.5c-2.3-2.3-6.1-2.3-8.5,0L70,77.5l-7.8-7.8
		c-2.3-2.3-6.1-2.3-8.5,0c-2.3,2.3-2.3,6.1,0,8.5L65.8,90.2z M65.8,90.2"/>
	<path d="M104,126c0,3.3,2.7,6,6,6h124c3.3,0,6-2.7,6-6s-2.7-6-6-6H110C106.7,120,104,122.7,104,126L104,126z M104,126"/>
	<path d="M86,104H54c-3.3,0-6,2.7-6,6v32c0,3.3,2.7,6,6,6h32c3.3,0,6-2.7,6-6v-32C92,106.7,89.3,104,86,104L86,104z M80,136H60v-20
		h20V136z M80,136"/>
	<path d="M234,176H110c-3.3,0-6,2.7-6,6s2.7,6,6,6h124c3.3,0,6-2.7,6-6S237.3,176,234,176L234,176z M234,176"/>
	<path d="M86,160H54c-3.3,0-6,2.7-6,6v32c0,3.3,2.7,6,6,6h32c3.3,0,6-2.7,6-6v-32C92,162.7,89.3,160,86,160L86,160z M80,192H60v-20
		h20V192z M80,192"/>
	<path d="M234,232H110c-3.3,0-6,2.7-6,6c0,3.3,2.7,6,6,6h124c3.3,0,6-2.7,6-6C240,234.7,237.3,232,234,232L234,232z M234,232"/>
	<path d="M86,216H54c-3.3,0-6,2.7-6,6v32c0,3.3,2.7,6,6,6h32c3.3,0,6-2.7,6-6v-32C92,218.7,89.3,216,86,216L86,216z M80,248H60v-20
		h20V248z M80,248"/>
	<path d="M182,288h-72c-3.3,0-6,2.7-6,6c0,3.3,2.7,6,6,6h72c3.3,0,6-2.7,6-6C188,290.7,185.3,288,182,288L182,288z M182,288"/>
	<path d="M86,272H54c-3.3,0-6,2.7-6,6v32c0,3.3,2.7,6,6,6h32c3.3,0,6-2.7,6-6v-32C92,274.7,89.3,272,86,272L86,272z M80,304H60v-20
		h20V304z M80,304"/>
</g>
</svg>
