<?xml version="1.0" encoding="utf-8"?>
<!-- Generator: Adobe Illustrator 19.0.0, SVG Export Plug-In . SVG Version: 6.00 Build 0)  -->
<svg version="1.1" id="Layer_1" xmlns="http://www.w3.org/2000/svg" xmlns:xlink="http://www.w3.org/1999/xlink" x="0px" y="0px"
	 viewBox="0 0 46.4 36.8" style="enable-background:new 0 0 46.4 36.8;" xml:space="preserve">
<g>
	<path d="M29.2,17.7l-8.8-5.6c-0.2-0.2-0.6-0.2-0.8,0c-0.3,0.1-0.4,0.4-0.4,0.7V24c0,0.3,0.2,0.6,0.4,0.7c0.1,0.1,0.3,0.1,0.4,0.1
		c0.1,0,0.3,0,0.4-0.1l8.8-5.6c0.2-0.1,0.4-0.4,0.4-0.7C29.6,18.1,29.5,17.9,29.2,17.7L29.2,17.7z M20.8,22.5v-8.3l6.5,4.1
		L20.8,22.5z M20.8,22.5"/>
	<path d="M45.6,0H0.8C0.4,0,0,0.4,0,0.8V36c0,0.4,0.4,0.8,0.8,0.8h44.8c0.4,0,0.8-0.4,0.8-0.8V0.8C46.4,0.4,46,0,45.6,0L45.6,0z
		 M8,17.6H1.6v-7.2H8V17.6z M1.6,19.2H8v7.2H1.6V19.2z M9.6,27.2V1.6h27.2v33.6H9.6V27.2z M44.8,17.6h-6.4v-7.2h6.4V17.6z
		 M38.4,19.2h6.4v7.2h-6.4V19.2z M44.8,1.6v7.2h-6.4V1.6H44.8z M1.6,1.6H8v7.2H1.6V1.6z M1.6,35.2V28H8v7.2H1.6z M44.8,35.2h-6.4V28
		h6.4V35.2z M44.8,35.2"/>
</g>
</svg>
